<svg xmlns="http://www.w3.org/2000/svg" width="128" height="128" viewBox="0 0 128 128" fill="none" role="img" aria-label="imMBA icon">
  <defs>
    <style>
      .navy { stroke: #0A2540; }
      .gold { stroke: #C89D3D; }
      .teal { stroke: #1BA6A3; }
      .txt { font-family: -apple-system, BlinkMacSystemFont, "Segoe UI", Arial, sans-serif; }
    </style>
  </defs>

  <!-- Minimal international badge: ring + double-degree infinity + imMBA -->
  <circle cx="64" cy="64" r="54" class="gold" stroke-width="6" opacity="0.95" />
  <circle cx="64" cy="64" r="46" class="navy" stroke-width="4" opacity="0.85" />

  <path
    d="M44 72c-7 0-12-5-12-12s5-12 12-12c5 0 9 2 14 7l6 6 6-6c5-5 9-7 14-7c7 0 12 5 12 12s-5 12-12 12c-5 0-9-2-14-7l-6-6-6 6c-5 5-9 7-14 7Z"
    class="teal"
    stroke-width="7"
    stroke-linejoin="round"
    stroke-linecap="round"
    opacity="0.98"
  />

  <g class="txt" aria-hidden="true">
    <rect x="34" y="44" width="60" height="18" rx="9" fill="#FFFFFF" opacity="0.95"/>
    <text x="64" y="57.5" text-anchor="middle" font-size="13" font-weight="900" fill="#0A2540">imMBA</text>
  </g>
</svg>
